# xmcd
#
# Track frame offsets:
#	150
#	11317
#	24100
#	38695
#	48727
#	60777
#	72232
#	84777
#	99617
#	109525
#	125512
#	136360
#
# Disc length: 1965 seconds
#
# Revision: 1
# Processed by: cddbd v1.5PL3 Copyright (c) Steve Scherf et al.
# Submitted via: EasyCDDAExtractor 6.5.7.1
#
DISCID=8807ab0c
DTITLE=Tony Marshall - C'est La Vie
DYEAR=1900
DGENRE=Easy Listening
TTITLE0=Aline
TTITLE1=C'est La Vie
TTITLE2=Nur Ein Wort
TTITLE3=Es War Nur Illusion
TTITLE4=Komm Zu Mir
TTITLE5=Wenn Du Allein Zu Hause Bist
TTITLE6=Sag Mir Wann
TTITLE7=Darum glaube Mir(Theme Of Love)
TTITLE8=So Schön
TTITLE9=Love Me Please Love Me(D.Original)
TTITLE10=Wer Kennt Ihren Namen(Encore Un Danse)
TTITLE11=Aus
EXTD=
EXTT0=
EXTT1=
EXTT2=
EXTT3=
EXTT4=
EXTT5=
EXTT6=
EXTT7=
EXTT8=
EXTT9=
EXTT10=
EXTT11=
PLAYORDER=
